HIERARCHY
ROOT Hips
{
	OFFSET 0.000000 0.000000 0.000000
	CHANNELS 6 Xposition Yposition Zposition Xrotation Yrotation Zrotation
	JOINT LeftUpLeg_virtual
	{
		OFFSET 0.000000 0.000000 0.000000
		CHANNELS 3 Xrotation Yrotation Zrotation
		JOINT LeftUpLeg
		{
			OFFSET 10.205400 -3.823500 0.155100
			CHANNELS 3 Xrotation Yrotation Zrotation
			JOINT LeftLeg
			{
				OFFSET 0.708757 -12.982077 0.567790
				CHANNELS 3 Xrotation Yrotation Zrotation
				JOINT LeftFoot
				{
					OFFSET -0.708756 -10.717838 -2.184338
					CHANNELS 3 Xrotation Yrotation Zrotation
					JOINT LeftToeBase
					{
						OFFSET 0.108149 -7.191104 7.560241
						CHANNELS 3 Xrotation Yrotation Zrotation
						JOINT LeftToe_End
						{
							OFFSET 0.070230 0.081724 4.490308
							CHANNELS 3 Xrotation Yrotation Zrotation
							End Site
							{
								OFFSET 0 0 0
							}
						}
					}
				}
			}
		}
	}
	JOINT RightUpLeg_virtual
	{
		OFFSET 0.000000 0.000000 0.000000
		CHANNELS 3 Xrotation Yrotation Zrotation
		JOINT RightUpLeg
		{
			OFFSET -10.205400 -3.823500 0.005500
			CHANNELS 3 Xrotation Yrotation Zrotation
			JOINT RightLeg
			{
				OFFSET -0.708756 -12.982134 0.610632
				CHANNELS 3 Xrotation Yrotation Zrotation
				JOINT RightFoot
				{
					OFFSET 0.708754 -10.717769 -1.945823
					CHANNELS 3 Xrotation Yrotation Zrotation
					JOINT RightToeBase
					{
						OFFSET -0.108140 -7.191069 7.372968
						CHANNELS 3 Xrotation Yrotation Zrotation
						JOINT RightToe_End
						{
							OFFSET -0.070227 0.081735 4.479403
							CHANNELS 3 Xrotation Yrotation Zrotation
							End Site
							{
								OFFSET 0 0 0
							}
						}
					}
				}
			}
		}
	}
	JOINT Spine_virtual
	{
		OFFSET 0.000000 0.000000 0.000000
		CHANNELS 3 Xrotation Yrotation Zrotation
		JOINT Spine
		{
			OFFSET 0.000000 6.876099 0.125700
			CHANNELS 3 Xrotation Yrotation Zrotation
			JOINT Spine1
			{
				OFFSET 0.000000 5.730043 0.104720
				CHANNELS 3 Xrotation Yrotation Zrotation
				JOINT Spine1_split
				{
					OFFSET 0.000000 5.730043 0.104720
					CHANNELS 3 Xrotation Yrotation Zrotation
					JOINT Spine2
					{
						OFFSET 0.000000 5.730043 0.104720
						CHANNELS 3 Xrotation Yrotation Zrotation
						JOINT Neck_virtual
						{
							OFFSET 0.000000 0.000000 0.000000
							CHANNELS 3 Xrotation Yrotation Zrotation
							JOINT Neck
							{
								OFFSET 0.000000 10.314075 0.188496
								CHANNELS 3 Xrotation Yrotation Zrotation
								JOINT Head
								{
									OFFSET 0.000000 7.643700 -2.377400
									CHANNELS 3 Xrotation Yrotation Zrotation
									JOINT HeadTop_End
									{
										OFFSET 0.000000 43.788605 -13.619600
										CHANNELS 3 Xrotation Yrotation Zrotation
										End Site
										{
											OFFSET 0 0 0
										}
									}
								}
							}
						}
						JOINT LeftShoulder_virtual
						{
							OFFSET 0.000000 0.000000 0.000000
							CHANNELS 3 Xrotation Yrotation Zrotation
							JOINT LeftShoulder
							{
								OFFSET 2.196100 4.412489 0.087492
								CHANNELS 3 Xrotation Yrotation Zrotation
								JOINT LeftShoulder_split
								{
									OFFSET 2.196100 4.412489 0.087492
									CHANNELS 3 Xrotation Yrotation Zrotation
									JOINT LeftArm
									{
										OFFSET 8.771219 -2.981674 -0.026999
										CHANNELS 3 Xrotation Yrotation Zrotation
										JOINT LeftForeArm
										{
											OFFSET 8.512804 0.000000 -0.000000
											CHANNELS 3 Xrotation Yrotation Zrotation
											JOINT LeftHand
											{
												OFFSET 18.484802 0.000000 -0.000000
												CHANNELS 3 Xrotation Yrotation Zrotation
												End Site
												{
													OFFSET 0 0 0
												}
											}
										}
									}
								}
							}
						}
						JOINT RightShoulder_virtual
						{
							OFFSET 0.000000 0.000000 0.000000
							CHANNELS 3 Xrotation Yrotation Zrotation
							JOINT RightShoulder
							{
								OFFSET -2.196100 4.412496 0.070690
								CHANNELS 3 Xrotation Yrotation Zrotation
								JOINT RightShoulder_split
								{
									OFFSET -2.196100 4.412496 0.070690
									CHANNELS 3 Xrotation Yrotation Zrotation
									JOINT RightArm
									{
										OFFSET -8.771282 -2.981682 -0.094208
										CHANNELS 3 Xrotation Yrotation Zrotation
										JOINT RightForeArm
										{
											OFFSET -8.494598 0.000000 0.000000
											CHANNELS 3 Xrotation Yrotation Zrotation
											JOINT RightHand
											{
												OFFSET -18.483803 0.000000 0.000001
												CHANNELS 3 Xrotation Yrotation Zrotation
												End Site
												{
													OFFSET 0 0 0
												}
											}
										}
									}
								}
							}
						}
					}
				}
			}
		}
	}
}
MOTION
Frames: 4
Frame Time: 0.03333333
2.286626 31.378036 0.639809 0.000000 0.000000 0.000000 152.483304 -86.815311 153.134931 -26.829874 34.294588 37.094074 28.623453 -10.050175 -0.390993 -12.593513 6.159412 -22.164809 0.742732 -0.314013 -0.210157 0.000000 0.000000 0.000000 160.473792 -87.160413 161.663747 -17.652498 -15.053121 -23.738872 9.344916 13.998975 -1.753670 -3.347005 10.299497 22.189746 4.632820 0.501618 1.196445 0.000000 0.000000 0.000000 56.762427 -88.583906 57.780040 6.171595 -0.318919 -7.321391 1.439590 0.105392 -0.919172 0.850412 0.426377 0.225680 0.000000 0.000000 0.000000 1.945407 -0.393714 -1.324719 -10.343163 4.794572 3.792384 29.755142 75.754093 -33.046306 0.000000 0.000000 0.000000 3.177750 -0.482718 -0.842400 5.506657 -4.468480 10.992795 -2.071841 -3.532624 1.314445 -38.496148 6.319593 4.388227 -4.058692 -10.330222 -0.207214 0.000000 0.000000 0.000000 2.710483 -0.352079 -1.504460 -1.461065 0.273928 -18.580088 2.390179 1.679647 6.597779 -60.616604 54.165005 53.888171 179.743750 41.529456 -178.799709 0.000000 0.000000 0.000000 
2.288916 31.378880 0.648876 0.000000 0.000000 0.000000 152.786086 -86.818630 153.446729 -26.841952 34.301541 37.120801 28.620760 -10.065925 -0.394612 -12.595166 6.147380 -22.162284 0.751283 -0.312794 -0.212926 0.000000 0.000000 0.000000 160.576859 -87.190206 161.774670 -17.613994 -15.003786 -23.760386 9.298303 13.994870 -1.750958 -3.345456 10.300673 22.220026 4.615181 0.492042 1.188712 0.000000 0.000000 0.000000 57.529591 -88.604930 58.571488 6.176727 -0.321262 -7.314631 1.438397 0.086290 -0.925418 0.821319 0.342871 0.220251 0.000000 0.000000 0.000000 1.952402 -0.407904 -1.323823 -10.321644 4.783046 3.792845 29.830899 75.824129 -33.156955 0.000000 0.000000 0.000000 3.181989 -0.500112 -0.840365 5.516081 -4.486853 11.026584 -2.007952 -3.506673 1.360622 -38.488154 6.342220 4.375454 -4.026453 -10.353633 -0.190404 0.000000 0.000000 0.000000 2.700360 -0.370863 -1.498195 -1.464783 0.231120 -18.611830 2.342445 1.686321 6.560247 -60.787420 54.235162 53.956606 179.727631 41.460840 -178.799954 0.000000 0.000000 0.000000 
2.290075 31.377710 0.657322 0.000000 0.000000 0.000000 153.035853 -86.830897 153.709979 -26.839519 34.288786 37.124715 28.613414 -10.087884 -0.402794 -12.584297 6.141947 -22.187146 0.768810 -0.311391 -0.221312 0.000000 0.000000 0.000000 160.463396 -87.230484 161.665496 -17.584021 -14.982517 -23.815203 9.258759 13.959461 -1.745030 -3.393148 10.272347 22.217929 4.630341 0.492531 1.186697 0.000000 0.000000 0.000000 57.086909 -88.600859 58.151711 6.188553 -0.323604 -7.294950 1.448390 0.049735 -0.930338 0.806420 0.285100 0.233089 0.000000 0.000000 0.000000 1.966838 -0.442662 -1.324735 -10.276411 4.742015 3.814805 30.170397 75.946608 -33.559964 0.000000 0.000000 0.000000 3.196658 -0.540211 -0.840248 5.534819 -4.499959 11.087257 -1.956769 -3.502025 1.443797 -38.492132 6.453522 4.280305 -3.995789 -10.454948 -0.177680 0.000000 0.000000 0.000000 2.704035 -0.409557 -1.488430 -1.469015 0.174077 -18.668681 2.305737 1.664884 6.540576 -60.985386 54.330999 54.018354 179.705788 41.438983 -178.814544 0.000000 0.000000 0.000000 
2.289828 31.375181 0.663654 0.000000 0.000000 0.000000 153.215978 -86.839995 153.904598 -26.816726 34.260243 37.101885 28.598212 -10.107987 -0.417098 -12.559695 6.141602 -22.228186 0.788953 -0.309337 -0.235360 0.000000 0.000000 0.000000 160.115808 -87.272503 161.322880 -17.578919 -14.986523 -23.904315 9.228374 13.912148 -1.730258 -3.449531 10.230584 22.216239 4.636919 0.502437 1.184420 0.000000 0.000000 0.000000 55.530148 -88.570833 56.611610 6.206489 -0.328004 -7.266496 1.467828 -0.006634 -0.932895 0.815378 0.253157 0.265652 0.000000 0.000000 0.000000 1.983783 -0.500488 -1.326608 -10.211529 4.674669 3.859147 30.749238 76.120573 -34.223909 0.000000 0.000000 0.000000 3.215747 -0.606350 -0.840918 5.562385 -4.504170 11.181823 -1.929087 -3.512613 1.533536 -38.521143 6.656703 4.118314 -3.972076 -10.610104 -0.165559 0.000000 0.000000 0.000000 2.717086 -0.470204 -1.475006 -1.475510 0.102975 -18.746158 2.274851 1.616681 6.538190 -61.169296 54.419635 54.078238 179.681896 41.471461 -178.840307 0.000000 0.000000 0.000000 
